# xmcd CD database file
#
# Track frame offsets:
#	150
#	11658
#	23813
#	36538
#	46349
#	56625
#	67669
#	77783
#	88804
#	100996
#	111393
#	120698
#
# Disc length: 1781 seconds
#
# Revision: 0
# Processed by: cddbd v1.5.2PL0 Copyright (c) Steve Scherf et al.
# Submitted via: CDex 1.70beta2
#
DISCID=9e06f30c
DTITLE=Homer and Jethro - Life Can Be Miserable
DYEAR=1900
DGENRE=Country
TTITLE0=Oh Lonesome Me
TTITLE1=Life Can Be Miserable
TTITLE2=There's an Empty Hanger in My Closet Tonight
TTITLE3=The Drafted Volunteer
TTITLE4=Don't Monkey Around My Widder
TTITLE5=She's Went and Gone Away
TTITLE6=Love is the Craziest Thing
TTITLE7=Have I Told You Lately That I Love You
TTITLE8=Oh That's Terrible
TTITLE9=I Don't Think My Gal Loves Me Anymore
TTITLE10=I'll Go On A Diet Tomorrow
TTITLE11=The Monkey and the Baboon
EXTD=
EXTT0=
EXTT1=
EXTT2=
EXTT3=
EXTT4=
EXTT5=
EXTT6=
EXTT7=
EXTT8=
EXTT9=
EXTT10=
EXTT11=
PLAYORDER=
